<svg width="794" height="736" viewBox="0 0 794 736" fill="none" xmlns="http://www.w3.org/2000/svg">
<path d="M494.214 74.9709C404.368 33.0381 327.002 7.57737 299.549 0.0885988C190.989 -3.66237 149.819 112.382 131.109 228.428C112.4 344.473 74.966 351.958 22.5638 441.797C-29.8384 531.636 7.60788 703.838 149.861 726.308C292.113 748.778 337.033 726.321 430.617 692.636C505.484 665.688 556.645 666.441 572.867 670.185C812.455 772.023 917.858 705.749 946.554 659.582C961.526 629.635 967.418 542.186 1018.32 419.404C1081.95 265.927 1059.49 243.465 1052 191.056C1044.51 138.647 947.168 26.337 827.378 33.8157C707.588 41.2944 606.521 127.387 494.214 74.9709Z" fill="#D9D9D9" fill-opacity="0.5"/>
</svg>
