<svg width="88" height="89" viewBox="0 0 88 89" fill="none" xmlns="http://www.w3.org/2000/svg">
<g clip-path="url(#clip0_128_432)">
<path d="M42.8 44.2C42.1 43.2 41.2 42.6 40.2 42.1C41.2 41 42.5 39.5 42.8 37.4C42.9 36.8 43.3 33.6 41.4 31C40.7 30 39.8 29.3 38.8 28.8C34.4 26.4 28.5 26.3 26.1 26.4H19.6V59.6H33.1C34.3 59.6 37.2 59.3 40 57.2C40.8 56.6 43.6 54.4 44.2 50.6C44.3 50 44.7 46.8 42.8 44.2ZM26.6 32.6H32.4C34.4 32.6 36 34.4 36 36.7C36 37.9 35.5 39 34.7 39.8C33.6 39.7 32.5 39.6 31.3 39.5C29.6 39.4 28 39.4 26.6 39.5V32.6ZM32.9 53.7H26.5V45.5H32.9C35.1 45.5 36.9 47.3 36.9 49.6C37 51.8 35.2 53.7 32.9 53.7Z" fill="white"/>
<path d="M70.6999 43.8C70.5999 42.9 70.4999 41.3 69.5999 39.5C69.1999 38.6 67.8999 36.1 65.0999 34.7C63.5999 34 62.2999 33.9 61.0999 33.8C60.1999 33.7 58.5 33.6 56.5 34.2C56 34.3 54.2 34.9 52.3 36.5C51.8 36.9 50.3 38.3 49.2 40.6C48.2 42.8 48 44.7 47.9 45.8C47.8 47.2 47.7 49.8 48.9 52.6C49.3 53.5 50.3 55.7 52.7 57.4C55.3 59.3 58.0999 59.4 60.0999 59.5C63.6999 59.7 66.7 58.7 68.5 57.9V52.6C67.2 53.1 65.6999 53.4 64.0999 53.4C59.4999 53.4 55.7 51 55.3 48.1H70.3C70.6 47.2 70.7999 45.7 70.6999 43.8ZM64.0999 43.6H55.3C55.3 43.4 55.2 43.2 55.2 43C55.2 40.9 57.1999 39.1 59.5999 39.1C61.9999 39.1 64 40.8 64 43C64.2 43.2 64.0999 43.4 64.0999 43.6Z" fill="white"/>
<path d="M63.8 0H24.2C10.8 0 0 10.8 0 24.2V64.8C0 78.2 10.8 89 24.2 89H63.8C77.2 89 88 78.2 88 64.8V24.2C88 10.8 77.2 0 63.8 0ZM80.9 66.6C80.9 74.4 74.6 80.7 66.8 80.7H21.1C13.3 80.8 7 74.4 7 66.6V22.4C7 14.6 13.3 8.3 21.1 8.3H66.8C74.6 8.3 80.9 14.6 80.9 22.4V66.6Z" fill="white"/>
</g>
<defs>
<clipPath id="clip0_128_432">
<rect width="88" height="89" fill="white"/>
</clipPath>
</defs>
</svg>
