<svg width="1148" height="1252" viewBox="0 0 1148 1252" fill="none" xmlns="http://www.w3.org/2000/svg">
<path d="M1150.18 105.617C1087.11 123.866 961.262 151.438 807.674 127.017C672.301 105.485 583.708 41.2837 517.747 10.6927C498.428 1.76482 476.624 -1.78006 455.235 0.84578C303.165 19.6205 242.723 203.954 214.296 388.419C183.661 586.145 122.53 598.88 36.8349 751.967C-48.7218 904.922 12.4099 1198.23 244.931 1236.57C477.452 1274.9 550.866 1236.57 703.764 1179.19C826.165 1133.24 847.554 1129.56 936.285 1140.98C1036.06 1153.72 1083.8 1189.43 1151.14 1212.93C1154.45 844.396 1146.87 474.153 1150.18 105.617Z" fill="#D9D9D9" fill-opacity="0.5"/>
</svg>
