<svg width="36" height="36" viewBox="0 0 36 36" fill="none" xmlns="http://www.w3.org/2000/svg">
<path d="M29.8286 0H6.13997C2.7381 0 0 2.7381 0 6.13997V28.9574C0 32.3593 2.7381 35.0974 6.13997 35.0974H29.8286C33.2305 35.0974 35.9686 32.3593 35.9686 28.9574V6.13997C35.9686 2.7381 33.2305 0 29.8286 0ZM33.3965 26.4683C33.3965 29.8701 30.6584 32.6082 27.2565 32.6082H8.71212C5.31025 32.6082 2.57215 29.8701 2.57215 26.4683V8.67063C2.57215 5.26876 5.31025 2.53066 8.71212 2.53066H27.2565C30.6584 2.53066 33.3965 5.26876 33.3965 8.67063V26.4683Z" fill="black"/>
<path d="M19.0836 8.58751H8.50464V25.8043C8.50464 26.6755 9.20991 27.3808 10.0811 27.3808H25.7215C26.5927 27.3808 27.2979 26.6755 27.2979 25.8043V16.2625L30.3679 13.1925V26.8C30.3679 28.8328 28.7085 30.4923 26.6756 30.4923H9.33437C7.30154 30.4923 5.64209 28.8328 5.64209 26.8V9.08535C5.64209 7.05252 7.30154 5.39307 9.33437 5.39307H22.3611L19.0836 8.58751Z" fill="black"/>
<path d="M24.7673 4.85376L26.3853 8.08969L29.9946 8.62901L27.3809 11.1597L28.0032 14.769L24.7673 13.068L21.5314 14.769L22.1537 11.1597L19.54 8.62901L23.1493 8.08969L24.7673 4.85376Z" fill="black"/>
</svg>
