<svg width="37" height="36" viewBox="0 0 37 36" fill="none" xmlns="http://www.w3.org/2000/svg">
<path d="M29.8701 0H6.13997C2.73809 0 0 2.77958 0 6.13997V28.9574C0 32.3593 2.73809 35.0974 6.13997 35.0974H29.8701C33.272 35.0974 36.0101 32.3593 36.0101 28.9574V6.13997C36.0101 2.77958 33.2305 0 29.8701 0ZM33.4379 26.4683C33.4379 29.8701 30.6999 32.6082 27.298 32.6082H8.71212C5.31024 32.6082 2.57215 29.8701 2.57215 26.4683V8.67063C2.57215 5.26876 5.31024 2.53066 8.71212 2.53066H27.298C30.6999 2.53066 33.4379 5.26876 33.4379 8.67063V26.4683Z" fill="black"/>
<path d="M19.0838 9.04381H8.46326V26.2606C8.46326 27.1318 9.16853 27.8371 10.0397 27.8371H25.6801C26.5513 27.8371 27.2565 27.1318 27.2565 26.2606V16.7188L30.3265 13.6903V27.2978C30.3265 29.3306 28.6671 30.9901 26.6343 30.9901H9.29299C7.26016 30.9901 5.60071 29.3306 5.60071 27.2978V9.54165C5.60071 7.50882 7.26016 5.84937 9.29299 5.84937H22.2782L19.0838 9.04381Z" fill="black"/>
<path d="M19.1251 21.4897L14.8105 17.1337L25.3481 6.59614C25.8874 6.05682 26.8001 6.05682 27.3394 6.59614L29.7041 8.96086C30.2434 9.50018 30.2434 10.3299 29.7041 10.8692L19.1251 21.4897Z" fill="black"/>
<path d="M13.6075 18.3369L18.005 22.7345L12.031 24.2695L13.6075 18.3369Z" fill="black"/>
</svg>
