<svg width="37" height="36" viewBox="0 0 37 36" fill="none" xmlns="http://www.w3.org/2000/svg">
<g clip-path="url(#clip0_129_437)">
<path d="M26.1779 10.5791H27.1735V8.83666C27.1735 8.21437 26.6342 7.67505 26.0119 7.67505H20.3698H14.4372H8.67065C8.04835 7.67505 7.50903 8.21437 7.50903 8.83666V10.5791H8.54619H26.1779Z" fill="black"/>
<path d="M20.3698 6.72079V7.71646H14.4373V6.72079C14.4373 6.18146 14.8521 5.7666 15.3914 5.7666H19.4156C19.9134 5.7666 20.3698 6.18146 20.3698 6.72079Z" fill="black"/>
<path d="M8.54614 10.5791L9.99816 23.3984V29.8702C9.99816 30.451 10.496 30.9489 11.0768 30.9489H23.6057C24.1865 30.9489 24.6843 30.451 24.6843 29.8702V23.3984L26.1363 10.5791H8.54614ZM13.4 26.9662C13.1926 26.9662 13.0267 26.8417 12.9852 26.6343L11.948 13.981C11.948 13.7735 12.0725 13.6076 12.2799 13.5661H12.3214C12.5288 13.5661 12.6948 13.7321 12.6948 13.898L13.7319 26.5513C13.7734 26.7588 13.6075 26.9662 13.4 26.9662ZM17.7561 26.7588C17.7561 26.9662 17.5902 27.1321 17.3827 27.1321C17.1753 27.1321 17.0093 26.9662 17.0093 26.7588V14.0225C17.0093 13.815 17.1753 13.6491 17.3827 13.6491C17.5902 13.6491 17.7561 13.815 17.7561 14.0225V26.7588ZM21.8218 26.6343C21.8218 26.8417 21.6143 27.0077 21.4069 26.9662C21.1995 26.9662 21.0335 26.7588 21.075 26.5513L22.1122 13.898C22.1122 13.6906 22.2781 13.5661 22.4855 13.5661H22.527C22.7345 13.5661 22.9004 13.7735 22.8589 13.981L21.8218 26.6343Z" fill="black"/>
<path d="M29.8701 0H6.13997C2.7381 0 0 2.7381 0 6.13997V28.9574C0 32.3593 2.7381 35.0974 6.13997 35.0974H29.8701C33.272 35.0974 36.0101 32.3593 36.0101 28.9574V6.13997C36.0101 2.7381 33.2305 0 29.8701 0ZM33.438 26.4683C33.438 29.8701 30.6999 32.6082 27.298 32.6082H8.71212C5.31025 32.6082 2.57215 29.8701 2.57215 26.4683V8.67063C2.57215 5.26876 5.31025 2.48918 8.71212 2.48918H27.298C30.6999 2.48918 33.438 5.22727 33.438 8.62915V26.4683Z" fill="black"/>
</g>
<defs>
<clipPath id="clip0_129_437">
<rect width="36.0101" height="35.0974" fill="white"/>
</clipPath>
</defs>
</svg>
