<svg width="1146" height="1260" viewBox="0 0 1146 1260" fill="none" xmlns="http://www.w3.org/2000/svg">
<path d="M1157.98 106.287C1094.49 124.653 967.782 152.399 813.152 127.824C676.861 106.155 587.668 41.5457 521.259 10.7605C501.808 1.77603 479.857 -1.79136 458.323 0.851148C305.221 19.7451 244.37 205.249 215.75 390.885C184.907 589.865 123.361 602.682 37.0848 756.74C-49.0523 910.666 12.494 1205.83 246.592 1244.41C480.691 1282.99 554.602 1244.41 708.537 1186.68C831.769 1140.43 853.303 1136.73 942.636 1148.23C1043.08 1161.04 1091.15 1196.98 1158.95 1220.63C1162.29 849.756 1154.64 477.163 1157.98 106.287Z" fill="#D9D9D9" fill-opacity="0.5"/>
</svg>
