<svg width="472" height="339" viewBox="0 0 472 339" fill="none" xmlns="http://www.w3.org/2000/svg">
<path d="M124.219 148.996C124.947 147.637 125.872 146.393 126.963 145.305C128.271 144.217 129.906 143.598 131.608 143.547V137.219H82.8947V143.687C84.5958 143.738 86.2309 144.357 87.539 145.445C88.622 146.556 89.5563 147.803 90.3186 149.154C91.3751 151.183 92.0547 153.387 92.3241 155.658C93.5144 164.463 94.1666 173.333 94.2768 182.218C94.4879 191.007 94.5231 199.075 94.4528 206.194H37.1724C37.0493 197.581 37.0844 193.573 37.3307 181.761C37.4445 172.969 38.1085 164.192 39.3187 155.482C39.559 153.21 40.2402 151.007 41.3242 148.996C42.0522 147.637 42.977 146.393 44.0686 145.305C45.3828 144.215 47.0238 143.597 48.7305 143.547V137.219H0V143.687C1.70726 143.735 3.34912 144.354 4.66194 145.445C5.73911 146.533 6.66244 147.763 7.40633 149.101C8.4912 151.12 9.17801 153.328 9.42944 155.605C10.6431 164.426 11.3012 173.315 11.3998 182.218C11.6461 194.153 11.6285 204.858 11.5053 213.577C11.3822 222.296 11.6461 233.018 11.3998 244.971C11.2978 253.851 10.6397 262.716 9.42944 271.514C9.17033 273.784 8.4839 275.985 7.40633 278C6.67158 279.354 5.7475 280.597 4.66194 281.691C3.34912 282.783 1.70726 283.402 0 283.449V289.935H48.7305V283.326C47.0238 283.276 45.3828 282.657 44.0686 281.568C42.983 280.474 42.0589 279.231 41.3242 277.877C40.2574 275.858 39.5772 273.659 39.3187 271.391C38.1088 262.592 37.4449 253.728 37.3307 244.848C37.1548 235.672 37.0845 222.876 37.1548 213.454H94.4C94.5231 222.243 94.5583 232.895 94.2768 244.848C94.1654 253.727 93.5132 262.591 92.3241 271.391C92.047 273.655 91.3678 275.851 90.3186 277.877C89.5616 279.226 88.6267 280.468 87.539 281.568C86.2309 282.656 84.5958 283.275 82.8947 283.326V289.812H131.608V283.326C129.906 283.275 128.271 282.656 126.963 281.568C125.878 280.474 124.954 279.231 124.219 277.877C123.152 275.858 122.472 273.659 122.213 271.391C121.003 262.592 120.34 253.728 120.225 244.848C119.979 232.895 119.926 214.825 120.049 206.071C120.173 197.317 120.049 193.45 120.225 181.638C120.339 172.846 121.003 164.069 122.213 155.359C122.469 153.13 123.15 150.97 124.219 148.996Z" fill="white"/>
<path d="M255.844 157.609C251.551 154.797 246.309 157.187 244.18 158.154C241.319 159.567 238.826 161.625 236.897 164.166C232.701 169.031 229.153 174.42 226.342 180.197L219.305 177.648C210.304 175.062 200.959 173.877 191.597 174.132C183.786 174.361 175.078 174.712 165.209 179.406C159.472 181.971 154.327 185.694 150.097 190.339C145.534 195.355 142.225 201.378 140.439 207.917C138.97 213.565 138.718 219.461 139.7 225.213C140.843 231.385 143.329 237.229 146.983 242.334C150.777 247.644 155.704 252.045 161.409 255.219C160.423 255.463 159.454 255.768 158.506 256.133C156.939 256.73 155.436 257.484 154.02 258.383C150.404 260.62 147.222 263.49 144.626 266.855C142.35 269.656 140.7 272.91 139.788 276.4C138.867 280.07 138.867 283.91 139.788 287.58C140.31 290.406 141.518 293.062 143.306 295.314C146.719 299.304 151.487 300.218 156.272 301.08C159.27 301.633 162.32 301.857 165.367 301.747H166.44H167.267C169.677 301.642 172.545 301.361 176.063 300.904C181.816 300.113 185.879 299.251 192.477 297.828C206.656 294.751 213.728 293.222 217.51 292.255C221.79 291.405 226.132 290.911 230.493 290.779C233.053 290.392 235.668 290.915 237.882 292.255C239.309 293.166 240.345 294.577 240.785 296.21C241.03 297.814 240.772 299.453 240.046 300.904C239.184 303.763 238.041 306.531 236.633 309.165C234.813 312.23 232.561 315.019 229.948 317.445C226.957 320.514 223.487 323.079 219.674 325.038C216.519 326.723 213.107 327.876 209.576 328.448C205.377 329.192 201.065 329.006 196.945 327.903C193.163 326.866 188.237 325.495 185.598 321.259C184.11 318.976 183.182 316.374 182.889 313.665C182.999 312.114 182.696 310.561 182.009 309.165C181.504 308.325 180.834 307.595 180.039 307.021C178.051 305.562 175.254 304.982 168.305 305.263H167.443H166.616C166.229 305.263 165.86 305.263 165.49 305.263C159.614 305.667 158.295 306.458 157.503 307.126C156.058 308.266 155.037 309.857 154.6 311.644C154.301 313.103 154.389 314.931 156.36 318.675C158.486 322.564 161.292 326.04 164.646 328.94C167.742 331.588 171.202 333.778 174.92 335.444C180.231 337.697 185.932 338.891 191.703 338.96C198.506 339.224 205.296 338.18 211.705 335.884C219.602 332.996 226.754 328.384 232.64 322.384C236.386 318.76 239.697 314.713 242.509 310.325C243.629 308.515 244.656 306.65 245.588 304.736C248.18 299.546 249.813 293.93 250.408 288.16C250.812 283.8 251.076 280.267 249.229 276.277C247.317 272.401 244.131 269.298 240.204 267.488C237.302 266.152 234.927 265.977 230.106 265.73C225.654 265.504 221.19 265.686 216.771 266.275C211.129 266.925 205.526 267.881 199.988 269.141C195.327 270.125 191.491 271.039 185.756 272.41C181.218 273.465 176.608 274.379 172.052 275.451C168.467 276.398 164.763 276.818 161.057 276.699C156.131 276.488 154.794 275.363 154.178 274.537C153.689 273.667 153.39 272.703 153.302 271.709C153.214 270.715 153.339 269.714 153.668 268.771C154.796 264.988 157.308 261.769 160.705 259.754C161.18 259.423 161.68 259.13 162.2 258.875C163.29 258.307 164.433 257.848 165.613 257.504C184.519 264.603 205.39 264.434 224.178 257.029C229.496 254.938 234.327 251.78 238.375 247.748C242.749 243.303 246.083 237.944 248.136 232.057C250.19 226.17 250.912 219.901 250.251 213.702C249.59 207.503 247.562 201.527 244.313 196.205C241.064 190.883 236.675 186.346 231.461 182.921C235.314 176.417 239.166 174.396 242.016 173.816C244.866 173.236 246.098 174.22 250.021 173.447C252.871 172.902 258.148 171.865 259.679 167.804C260.213 165.918 260.129 163.911 259.439 162.077C258.749 160.242 257.489 158.676 255.844 157.609ZM219.903 238.362C217.809 242.053 210.421 255.096 196.699 256.274C185.756 257.223 177.682 249.998 175.94 248.346C169.747 242.457 168.129 235.497 166.722 229.397C165.046 222.244 165.004 214.807 166.598 207.636C167.847 202.028 169.554 194.487 176.204 188.159C177.963 186.507 184.718 180.056 194.394 179.968C208.732 179.863 217.633 193.819 219.252 196.368C227.503 209.27 226.94 226.057 219.903 238.362Z" fill="white"/>
<path d="M348.327 275.82C347.995 275.257 347.707 274.669 347.464 274.062C346.584 271.785 346.206 269.345 346.356 266.908C346.515 263.234 346.356 245.235 346.356 220.432C346.553 213.114 345.223 205.834 342.451 199.058C341.27 195.952 339.698 193.011 337.771 190.304C333.497 184.708 327.798 180.362 321.27 177.718C315.275 175.104 308.808 173.743 302.267 173.719C295.726 173.695 289.249 175.008 283.235 177.577C269.566 183.589 256.583 197.511 259.644 203.944C260.225 205.157 263.162 209.956 283.235 207.266C283.446 194.101 289.78 183.747 298.013 181.603C302.262 180.508 306.772 181.14 310.556 183.361C313.438 185.406 315.643 188.264 316.889 191.569C319.809 197.248 321.295 203.554 321.217 209.938C321.358 211.344 321.076 212.751 321.217 214.157C311.013 214.438 295.884 215.669 283.235 220.397C281.141 221.153 279.107 222.064 277.148 223.122C273.63 225.02 264.587 229.942 259.644 239.891C257.332 244.592 256.13 249.761 256.13 254.999C256.13 260.237 257.332 265.406 259.644 270.107C266.188 283.132 278.995 286.929 283.235 288.16C302.587 293.873 319.264 283.203 321.938 281.41C324.747 284.945 328.798 287.277 333.268 287.931C333.813 287.931 334.358 287.931 334.868 287.931H357.738V281.832C355.75 281.34 350.526 279.74 348.327 275.82ZM321.217 275.82C311.875 281.216 300.704 281.269 292.541 275.82C287.798 272.659 284.285 267.966 282.59 262.526C280.896 257.086 281.124 251.23 283.235 245.938C289.973 226.602 319.282 220.731 321.217 220.362V275.82Z" fill="white"/>
<path d="M410.075 278.668C408.505 276.698 407.474 274.354 407.085 271.865C405.76 266.574 404.784 261.201 404.164 255.781C403.32 245.938 403.425 239.557 403.425 239.557C403.637 227.446 403.566 187.72 403.425 133.035H365.198V141.789C367.295 142.391 369.235 143.446 370.88 144.88C372.524 146.314 373.833 148.091 374.715 150.086C375.331 151.625 375.819 153.212 376.175 154.832C376.756 157.487 377.034 160.2 377.002 162.918C377.002 168.191 377.002 201.272 377.002 246.852C376.826 248.891 376.545 251.897 376.158 255.518C375.172 264.939 374.398 268.807 373.184 272.744C371.777 277.033 370.581 278.756 369.173 279.775C368.102 280.584 366.804 281.039 365.461 281.076L365.567 289.865H414.825V281.076C412.995 280.9 411.299 280.04 410.075 278.668Z" fill="white"/>
<path d="M467.215 278.668C465.639 276.688 464.608 274.331 464.224 271.83C462.899 266.538 461.924 261.166 461.304 255.746C460.442 245.903 460.565 239.522 460.565 239.522C460.776 227.411 460.706 187.685 460.565 133H422.337V141.789C424.445 142.39 426.394 143.449 428.045 144.889C429.696 146.329 431.009 148.116 431.89 150.121C432.506 151.66 432.994 153.248 433.35 154.867C433.931 157.522 434.209 160.235 434.177 162.953C434.177 168.226 434.177 201.308 434.177 246.887C434.001 248.926 433.719 251.932 433.332 255.553C432.347 264.975 431.573 268.842 430.342 272.779C428.952 277.068 427.738 278.791 426.348 279.81C425.272 280.623 423.967 281.077 422.619 281.111L422.742 289.9H472V281.111C470.151 280.938 468.439 280.063 467.215 278.668Z" fill="white"/>
<path d="M60.2808 53.23V57.49C61.6508 57.99 64.6208 58.65 65.8308 61.36C67.6358 65.4158 68.4252 69.8504 68.1308 74.28C68.1908 82.28 68.2542 90.3067 68.3208 98.36C65.6108 99.06 41.6508 104.36 31.3208 91.53C25.2608 84 21.6808 77.21 19.7008 70.53C18.5408 66.62 13.8808 49.37 21.8208 30.76C24.3308 24.81 27.2108 18.06 34.5408 13.01C35.5408 12.31 46.6608 4.91001 60.2008 8.21001C63.9972 9.12587 67.5733 10.7882 70.7208 13.1C76.2836 17.483 80.1163 23.6927 81.5408 30.63H84.8908L85.0308 13.1C77.5549 8.40652 69.2538 5.17907 60.5708 3.59001C57.8708 3.10001 55.8608 2.90001 55.4008 2.85001C50.3408 2.36001 31.1408 0.500006 16.4008 13.19C11.0152 17.9278 6.82765 23.8732 4.18081 30.54C1.18366 37.7525 -0.231509 45.524 0.0308114 53.33C0.0308114 60.8 0.0308113 71.41 6.58081 82.33C17.3208 100.33 36.8408 104.22 39.2508 104.67C48.0508 106.29 55.2508 104.92 60.4708 103.93C69.0631 102.281 77.2858 99.0893 84.7408 94.51L84.9308 73.01C84.7744 68.5339 85.9283 64.1096 88.2508 60.28C89.3908 58.54 91.3108 57.92 92.5908 57.42V53.23H60.2808Z" fill="white"/>
<path d="M158.331 95.64C158.108 95.241 157.914 94.8266 157.751 94.4C157.152 92.8464 156.892 91.1823 156.991 89.52C157.101 87 156.991 74.72 156.991 57.76C157.128 52.7637 156.218 47.794 154.321 43.17C153.502 41.0572 152.417 39.0576 151.091 37.22C148.175 33.3969 144.286 30.4268 139.831 28.62C135.744 26.8411 131.338 25.9147 126.881 25.8975C122.424 25.8803 118.011 26.7727 113.911 28.52C104.571 32.63 95.7107 42.15 97.8007 46.52C98.1907 47.35 100.221 50.63 113.911 48.79C114.051 39.79 118.371 32.72 123.991 31.26C126.889 30.5079 129.967 30.9358 132.551 32.45C134.821 33.89 135.821 35.89 136.881 38.06C138.886 41.9371 139.916 46.245 139.881 50.61C139.981 51.61 139.781 52.53 139.881 53.49C132.881 53.68 122.581 54.49 113.961 57.74C112.532 58.2659 111.142 58.8907 109.801 59.61C107.411 60.91 101.231 64.27 97.8007 71.06C96.2249 74.272 95.4055 77.8023 95.4055 81.38C95.4055 84.9578 96.2249 88.488 97.8007 91.7C102.271 100.6 111.071 103.2 113.911 104.03C127.181 107.95 138.491 100.66 140.331 99.43C141.681 100.99 144.331 103.54 148.071 103.88C148.434 103.9 148.798 103.9 149.161 103.88H164.731V99.75C163.421 99.41 159.851 98.32 158.331 95.64ZM139.831 95.64C133.451 99.32 125.831 99.36 120.251 95.64C116.611 93.0851 114.047 89.2736 113.051 84.94C112.426 81.6898 112.724 78.3297 113.911 75.24C118.501 62.09 138.511 58.01 139.831 57.76V95.64Z" fill="white"/>
<path d="M236.511 50.93C235.061 45.7 233.341 39.53 227.621 34.24C220.421 27.59 211.771 26.86 209.001 26.67C204.421 26.2495 199.807 26.9532 195.561 28.72C192.972 29.8235 190.571 31.3213 188.441 33.16V0.0100098H163.521L163.441 4.32001C165.184 4.31813 166.875 4.91472 168.231 6.01001C169.505 7.2283 170.38 8.80425 170.741 10.53C171.17 11.9493 171.372 13.4275 171.341 14.91V103.91H175.621C176.64 102.345 178.199 101.21 180.001 100.72C181.574 100.539 183.168 100.672 184.691 101.11C186.667 101.643 188.605 102.311 190.491 103.11C195.571 105.11 203.341 105.59 207.981 104.99C214.851 103.993 221.249 100.911 226.311 96.16C233.111 89.7 235.031 82.24 236.511 76.51C238.704 68.1244 238.704 59.3157 236.511 50.93ZM216.621 89.39C214.621 94.66 212.721 97.39 209.831 99.05C207.835 100.188 205.605 100.854 203.312 100.998C201.019 101.142 198.723 100.759 196.601 99.88C191.981 97.88 188.891 90.01 188.491 80.22C187.221 48.97 188.311 45.22 188.371 40.22C188.371 38.07 191.991 34.73 196.651 33C199.783 31.9005 203.179 31.7992 206.371 32.71C206.941 32.85 214.591 34.92 218.051 42C219.189 44.4229 219.76 47.0734 219.721 49.75C220.421 78.27 218.131 85.45 216.621 89.39Z" fill="white"/>
<path d="M256.791 20.16C258.785 20.16 260.734 19.5686 262.392 18.4605C264.05 17.3525 265.342 15.7776 266.104 13.9351C266.867 12.0927 267.066 10.0654 266.676 8.10981C266.287 6.15421 265.326 4.35815 263.915 2.94883C262.504 1.53952 260.707 0.58028 258.751 0.192471C256.795 -0.195338 254.768 0.00570709 252.926 0.770172C251.085 1.53464 249.511 2.82817 248.405 4.48713C247.298 6.1461 246.709 8.09594 246.711 10.09C246.711 11.4133 246.972 12.7235 247.478 13.9459C247.985 15.1683 248.728 16.2789 249.664 17.2141C250.6 18.1493 251.711 18.8909 252.934 19.3963C254.157 19.9018 255.468 20.1613 256.791 20.16ZM269.641 98.52C268.656 97.6518 267.973 96.4925 267.691 95.21C266.829 92.6696 266.187 90.06 265.771 87.41C265.448 84.7991 265.288 82.1707 265.291 79.54C265.431 73.67 265.381 54.4 265.291 27.88H240.351V32.13C241.351 32.39 244.931 33.21 246.591 36.13C246.982 36.8625 247.297 37.6332 247.531 38.43C247.917 39.6998 248.1 41.023 248.071 42.35C248.071 44.88 248.071 60.95 248.071 83.05C247.961 84.05 247.781 85.5 247.531 87.26C246.881 91.83 246.421 93.7 245.581 95.61C244.671 97.69 243.881 98.52 242.971 99.03C242.224 99.4333 241.389 99.6463 240.541 99.65C240.541 101.06 240.591 102.48 240.611 103.89H272.731V99.66C271.61 99.5971 270.534 99.2001 269.641 98.52Z" fill="white"/>
</svg>
