<svg width="88" height="89" viewBox="0 0 88 89" fill="none" xmlns="http://www.w3.org/2000/svg">
<g clip-path="url(#clip0_110_330)">
<path d="M64 0H24C10.8 0 0 10.8 0 24V65C0 78.3 10.8 89 24 89H64C77.2 89 88 78.3 88 65V24C88 10.8 77.2 0 64 0ZM33.3 83.1C16.5 78.6 4.1 63.3 4.1 45.1C4.1 23.4 21.7 5.9 43.3 5.9C65 5.9 82.5 23.5 82.5 45.1C82.5 52.5 80.4 59.5 76.8 65.4C71.8 73.7 63.8 79.9 54.3 82.7C54.1 82.5 54 82.4 53.8 82.3C53.7 82.2 53.5 81.8 53.4 81.3C53.4 81.2 53.4 81.1 53.4 81.1C53.5 80.8 55 72.4 53.4 66.9C53.2 66.1 52.7 64.7 51.8 63.2C61.8 60.6 69 53.3 69 44.7C69 40.8 67.5 37.1 64.9 34C66.1 31.5 65.6 26.7 65.4 24.9C65.2 23.3 65 22.8 64.7 22.5C62.7 20.8 56.9 24.5 53.8 26.7C50.7 25.7 47.3 25.1 43.7 25.1C40.3 25.1 37.1 25.6 34.1 26.6C31.1 24.5 25.1 20.5 23 22.3C22.7 22.6 22.4 23 22.3 24.6C22.1 26.3 21.6 31.2 22.8 33.7C20 36.8 18.4 40.6 18.4 44.7C18.4 53.5 25.9 60.9 36.2 63.4C34.8 65.7 34.3 67.1 34.2 67.9C34.2 67.9 34.2 68.1 34.1 68.2C33.5 69.7 29.5 70.1 26.8 68.8C24.7 67.8 25 66.7 22.4 64.3C19.4 61.7 15.6 60.2 15 60.9C14.8 61.2 15.4 61.9 15.8 62.6C17.2 65 18.8 64.9 20 67.4C20.7 68.8 20.4 68.8 21.2 70C23 72.7 26.2 73.5 27.3 73.7C30.2 74.4 32.6 73.9 33.8 73.5C33.9 76.1 33.9 78.8 34 81.4C34 82 33.7 82.9 33.3 83.1Z" fill="white"/>
</g>
<defs>
<clipPath id="clip0_110_330">
<rect width="88" height="89" fill="white"/>
</clipPath>
</defs>
</svg>
