<?xml version="1.0" encoding="utf-8"?>
<!-- Generator: Adobe Illustrator 23.0.1, SVG Export Plug-In . SVG Version: 6.00 Build 0)  -->
<svg version="1.1" id="Layer_1" xmlns="http://www.w3.org/2000/svg" xmlns:xlink="http://www.w3.org/1999/xlink" x="0px" y="0px"
	 viewBox="0 0 88.5 88.1" style="enable-background:new 0 0 88.5 88.1;" xml:space="preserve">
<style type="text/css">
	.st0{fill:#231F20;}
	.st1{fill:none;stroke:#85A03D;stroke-miterlimit:10;}
	.st2{fill:none;stroke:#85A03D;stroke-width:0.25;stroke-miterlimit:10;}
</style>
<path class="st0" d="M-142.1,44.2c-0.7-1-1.6-1.6-2.6-2.1c1-1.1,2.3-2.6,2.6-4.7c0.1-0.6,0.5-3.8-1.4-6.4c-0.7-1-1.6-1.7-2.6-2.2
	c-4.4-2.4-10.3-2.5-12.7-2.4l-6.5,0v33.2h13.5c1.2,0,4.1-0.3,6.9-2.4c0.8-0.6,3.6-2.8,4.2-6.6C-140.6,50-140.1,46.8-142.1,44.2z
	 M-158.3,32.6h5.8c2,0,3.6,1.8,3.6,4.1c0,1.2-0.5,2.3-1.3,3.1h0c-1.1-0.1-2.2-0.2-3.4-0.3c-1.7-0.1-3.3-0.1-4.7,0V32.6z
	 M-151.9,53.7h-6.4v-8.2h6.4c2.2,0,4,1.8,4,4.1C-147.9,51.8-149.7,53.7-151.9,53.7z"/>
<path class="st0" d="M-114.2,43.8L-114.2,43.8 M-114.2,43.8L-114.2,43.8c-0.1-0.9-0.2-2.5-1.1-4.3c-0.4-0.9-1.7-3.4-4.5-4.8
	c-1.5-0.7-2.8-0.8-4-0.9c-0.9-0.1-2.6-0.2-4.6,0.4c-0.5,0.1-2.3,0.7-4.2,2.3c-0.5,0.4-2,1.8-3.1,4.1c-1,2.2-1.2,4.1-1.3,5.2
	c-0.1,1.4-0.2,4,1,6.8c0.4,0.9,1.4,3.1,3.8,4.8c2.6,1.9,5.4,2,7.4,2.1c3.6,0.2,6.6-0.8,8.4-1.6v-5.3c-1.3,0.5-2.8,0.8-4.4,0.8
	c-4.6,0-8.4-2.4-8.8-5.3h15C-114.3,47.2-114.1,45.7-114.2,43.8z M-120.8,43.6h-8.7c0-0.2-0.1-0.4-0.1-0.6c0-2.1,2-3.9,4.4-3.9
	c2.4,0,4.4,1.7,4.4,3.9C-120.7,43.2-120.8,43.4-120.8,43.6z"/>
<path class="st0" d="M-121.1,0h-39.6c-13.4,0-24.2,10.8-24.2,24.2v40.6c0,13.4,10.8,24.2,24.2,24.2h39.6c13.4,0,24.2-10.8,24.2-24.2
	V24.2C-96.9,10.8-107.7,0-121.1,0z M-104,66.6c0,7.8-6.3,14.1-14.1,14.1h-45.7c-7.8,0-14.1-6.3-14.1-14.1V22.4
	c0-7.8,6.3-14.1,14.1-14.1h45.7c7.8,0,14.1,6.3,14.1,14.1V66.6z"/>
<image style="overflow:visible;" width="900" height="512" xlink:href="../../../png-clipart-black-and-white-illustration-computer-icons-editing-graphics-editor-edit-pen-write-icon-miscellaneous-angle.png"  transform="matrix(0.1178 0 0 0.1178 -9 16.4568)">
</image>
<path class="st0" d="M-28.7,27.7h2.4v-4.2c0-1.5-1.3-2.8-2.8-2.8h-13.7h-14.3h-13.9c-1.5,0-2.8,1.3-2.8,2.8v4.2h2.6H-28.7z"/>
<path class="st0" d="M-42.8,18.3v2.4h-14.3v-2.4c0-1.3,1-2.3,2.3-2.3h9.7C-43.8,16-42.8,17.1-42.8,18.3z"/>
<path class="st0" d="M-71.2,27.7l3.5,30.9v15.6c0,1.4,1.2,2.6,2.6,2.6h30.2c1.4,0,2.6-1.2,2.6-2.6V58.6l3.5-30.9H-71.2z M-59.6,67.2
	c-0.5,0-0.9-0.3-1-0.8L-63,35.8c0-0.5,0.3-0.9,0.8-1h0.1c0.5,0,0.9,0.4,0.9,0.8l2.5,30.5C-58.7,66.7-59.1,67.2-59.6,67.2z
	 M-49.1,66.6c0,0.5-0.4,0.9-0.9,0.9c-0.5,0-0.9-0.4-0.9-0.9V36c0-0.5,0.4-0.9,0.9-0.9c0.5,0,0.9,0.4,0.9,0.9V66.6z M-39.3,66.4
	c0,0.5-0.5,0.9-1,0.8c-0.5,0-0.9-0.5-0.8-1l2.5-30.5c0-0.5,0.4-0.8,0.9-0.8h0.1c0.5,0,0.9,0.5,0.8,1L-39.3,66.4z"/>
<path class="st0" d="M-19.9,2.2H-77c-8.2,0-14.8,6.6-14.8,14.8v55c0,8.2,6.6,14.8,14.8,14.8h57.1c8.2,0,14.8-6.6,14.8-14.8V17
	C-5.1,8.8-11.7,2.2-19.9,2.2z M-11.3,66c0,8.2-6.6,14.8-14.8,14.8h-44.8c-8.2,0-14.8-6.6-14.8-14.8V23c0-8.2,6.6-14.8,14.8-14.8
	h44.8c8.2,0,14.8,6.6,14.8,14.8V66z"/>
<path class="st0" d="M162.7,44.7h-57.1c-8.2,0-14.8,6.6-14.8,14.8v55c0,8.2,6.6,14.8,14.8,14.8h57.1c8.2,0,14.8-6.6,14.8-14.8v-55
	C177.5,51.3,170.9,44.7,162.7,44.7z M171.3,108.5c0,8.2-6.6,14.8-14.8,14.8h-44.8c-8.2,0-14.8-6.6-14.8-14.8V65.6
	c0-8.2,6.6-14.8,14.8-14.8h44.8c8.2,0,14.8,6.6,14.8,14.8V108.5z"/>
<path class="st0" d="M175.8,1.2h-57.1c-8.2,0-14.8,6.6-14.8,14.8v55c0,8.2,6.6,14.8,14.8,14.8h57.1c8.2,0,14.8-6.6,14.8-14.8V16
	C190.6,7.8,183.9,1.2,175.8,1.2z M184.4,65c0,8.2-6.6,14.8-14.8,14.8h-44.7c-8.2,0-14.8-6.6-14.8-14.8V22.1
	c0-8.2,6.6-14.8,14.8-14.8h44.7c8.2,0,14.8,6.6,14.8,14.8V65z"/>
<path class="st1" d="M65.1,77.1H23.3c-4.9,0-8.9-4-8.9-8.9V25.4c0-4.9,4-8.9,8.9-8.9h41.8c4.9,0,8.9,4,8.9,8.9v42.8
	C74,73.1,70,77.1,65.1,77.1z"/>
<path class="st1" d="M62.9,69.5H25.2c-2.1,0-3.8-1.7-3.8-3.8V24.2h41.5c2.1,0,3.8,1.7,3.8,3.8v37.7C66.7,67.8,65,69.5,62.9,69.5z"/>
<line class="st2" x1="42.6" y1="28.5" x2="58.3" y2="12.8"/>
<line class="st2" x1="60.7" y1="48.7" x2="76.4" y2="33"/>
</svg>
