<svg width="88" height="89" viewBox="0 0 88 89" fill="none" xmlns="http://www.w3.org/2000/svg">
<g clip-path="url(#clip0_110_313)">
<path d="M64 0H24C10.8 0 0 10.8 0 24V65C0 78.3 10.8 89 24 89H64C77.2 89 88 78.3 88 65V24C88 10.8 77.2 0 64 0ZM43 64.5C32.2 64.5 23.5 55.8 23.5 45C23.5 34.2 32.2 25.5 43 25.5C53.8 25.5 62.5 34.2 62.5 45C62.5 55.8 53.8 64.5 43 64.5ZM70.5 22C68 22 66 20 66 17.5C66 15 68 13 70.5 13C73 13 75 15 75 17.5C75 20 73 22 70.5 22Z" fill="#D9D9D9"/>
<path d="M43 58.7999C50.6215 58.7999 56.7999 52.6215 56.7999 45C56.7999 37.3784 50.6215 31.2 43 31.2C35.3784 31.2 29.2 37.3784 29.2 45C29.2 52.6215 35.3784 58.7999 43 58.7999Z" fill="#D9D9D9"/>
</g>
<defs>
<clipPath id="clip0_110_313">
<rect width="88" height="89" fill="white"/>
</clipPath>
</defs>
</svg>
