<svg width="88" height="89" viewBox="0 0 88 89" fill="none" xmlns="http://www.w3.org/2000/svg">
<g clip-path="url(#clip0_113_349)">
<path d="M64 0H24C10.8 0 0 10.8 0 24V65C0 78.3 10.8 89 24 89H64C77.2 89 88 78.3 88 65V24C88 10.8 77.2 0 64 0ZM80.1 72.8C80.1 77.1 76.6 80.6 72.3 80.6H15.7C11.4 80.6 7.9 77.1 7.9 72.8V16.2C7.9 11.9 11.4 8.4 15.7 8.4H72.3C76.6 8.4 80.1 11.9 80.1 16.2V72.8ZM23.7 18.9C20.5 18.9 17.9 21.5 17.9 24.7C17.9 27.9 20.5 30.5 23.7 30.5C26.9 30.5 29.5 27.9 29.5 24.7C29.5 21.5 26.9 18.9 23.7 18.9Z" fill="white"/>
<path d="M28.9 36H17.9V70.8H28.9V36Z" fill="white"/>
<path d="M70.1 45V70.8H59.1V48.3C58 45.9 55.7 44.4 53.2 44.4C50.5 44.4 48 46.1 47 48.7V70.8H36V36H47V39.7C49.7 36.4 54 33.7 59 34.3C60.8 34.5 62.6 35.1 64.1 36C66.6 37.5 68.7 39.8 69.6 42.4C69.7 42.9 70 43.8 70.1 45Z" fill="white"/>
</g>
<defs>
<clipPath id="clip0_113_349">
<rect width="88" height="89" fill="white"/>
</clipPath>
</defs>
</svg>
