<svg width="88" height="89" viewBox="0 0 88 89" fill="none" xmlns="http://www.w3.org/2000/svg">
<g clip-path="url(#clip0_110_322)">
<path d="M33.2 39.3001L13.7 61.1001C13 60.5001 12.5 59.6001 12.5 58.6001V27.1001C12.5 26.2001 12.9 25.4001 13.4 24.8001C13.5 24.7001 13.5 24.7001 13.6 24.6001L33.2 39.3001Z" fill="white"/>
<path d="M51.5999 40.7L71.9 63.4H71.8C71.4 63.6 70.9 63.7 70.4 63.7H17.6C17.1 63.7 16.6 63.6 16.2 63.4L36.4 40.7L37.2999 41.4C39.3999 42.9 41.9 43.7999 44.4 43.7999C46.5 43.7999 48.4999 43.1 50.0999 41.9L51.5999 40.7Z" fill="white"/>
<path d="M75.4 26.2999V59.5C75.4 60.5 75 61.3999 74.3 62.0999L53.7 39.0999L74.1999 23.7C74.9999 24.3 75.4 25.1999 75.4 26.2999Z" fill="white"/>
<path d="M70.3 23.3L49.2999 39.1C47.7999 40.2 46.0999 40.8 44.2999 40.8C41.9999 40.8 39.8999 40.1001 38.0999 38.7001L17.7 23.3H70.3Z" fill="white"/>
<path d="M64 0H24C10.8 0 0 10.8 0 24V65C0 78.3 10.8 89 24 89H64C77.2 89 88 78.3 88 65V24C88 10.8 77.2 0 64 0ZM78.4 62.4C78.4 63.6 77.9 64.7 77.1 65.4C76.4 66.1 75.4 66.5 74.3 66.5H13.8C11.5 66.5 9.6 64.6 9.6 62.3V23.5C9.6 22.4 10 21.4 10.7 20.7C11.5 19.9 12.5 19.4 13.7 19.4H74.2C76.5 19.4 78.4 21.3 78.4 23.6V62.4Z" fill="white"/>
</g>
<defs>
<clipPath id="clip0_110_322">
<rect width="88" height="89" fill="white"/>
</clipPath>
</defs>
</svg>
