<svg width="393" height="842" viewBox="0 0 393 842" fill="none" xmlns="http://www.w3.org/2000/svg">
<path d="M502 841.891L-115 841.891L-115 139.044C-95.4952 151.635 -64.18 165.281 -35.549 158.754C-6.91798 152.227 -13.181 145.571 46.9441 98.5381C75.2713 82.0539 91.6801 73.9916 128.006 79.8504C172.154 86.9708 200.674 136.206 215.33 158.754C229.987 181.302 275.666 175.624 299 139.044C318.304 108.782 315.012 82.0289 323.77 64.7223C323.77 23.3908 372.467 -24.5343 408.5 14.3908C444.533 53.3159 485.02 96.1545 502 151.635L502 841.891Z" fill="url(#paint0_radial_35_151)"/>
<defs>
<radialGradient id="paint0_radial_35_151" cx="0" cy="0" r="1" gradientUnits="userSpaceOnUse" gradientTransform="translate(194.215 415.338) rotate(-90) scale(426.553 309.215)">
<stop/>
<stop offset="0.567308" stop-color="#272626"/>
<stop offset="0.956731" stop-color="#383838"/>
</radialGradient>
</defs>
</svg>
